<svg version="1.1" preserveAspectRatio="none" xmlns="http://www.w3.org/2000/svg" width="500" height="500" viewBox="0 0 500 500"><rect width="100%" height="100%" fill="#121212" fill-opacity="1"/><svg viewBox="100.1754 163.6898 355.3855 240.934" width="333" height="225.7577250619398" x="83.5px" y="137.1211px" xmlns="http://www.w3.org/2000/svg" xmlns:xlink="http://www.w3.org/1999/xlink" preserveAspectRatio="none"><defs></defs><style>.companyName {fill:#E3E3E3;fill-opacity:1;}.icon1 {fill:#F1EC40;fill-opacity:1;}.icon2 {fill:#555555;fill-opacity:1;}.icon3 {fill:#AAAAAA;fill-opacity:1;}.icon3-str {stroke:#AAAAAA;stroke-opacity:1;}</style><g opacity="1" transform="rotate(0 100.1754 364.6238)">
<svg width="355.3855" height="40" x="100.1754" y="364.6238" version="1.1" preserveAspectRatio="none" viewBox="2.4219 -28.3984 255.7813 28.7891">
  <g transform="matrix(1 0 0 1 0 0)" class="companyName"><path id="id-D6z1nYkh8" d="M30.43-25.45L30.43 0L25.35 0L25.35-6.88L7.50-6.88L7.50 0L2.42 0L2.42-14.00Q2.42-17.07 3.48-19.65Q4.53-22.23 6.41-24.08Q8.28-25.94 10.84-26.97Q13.40-28.01 16.43-28.01L16.43-28.01L27.87-28.01Q28.40-28.01 28.87-27.81Q29.34-27.62 29.69-27.27Q30.04-26.91 30.23-26.45Q30.43-25.98 30.43-25.45L30.43-25.45ZM7.50-14.00L7.50-11.95L25.35-11.95L25.35-22.93L16.43-22.93Q16.19-22.93 15.44-22.86Q14.69-22.79 13.70-22.52Q12.71-22.25 11.62-21.68Q10.53-21.11 9.61-20.12Q8.69-19.12 8.10-17.63Q7.50-16.13 7.50-14.00L7.50-14.00Z M63.96-14.00L63.96-2.56Q63.96-2.01 63.77-1.54Q63.57-1.07 63.23-0.73Q62.89-0.39 62.42-0.20Q61.95 0 61.41 0L61.41 0L43.09 0Q42.38 0 41.57-0.17Q40.76-0.33 39.97-0.68Q39.18-1.04 38.46-1.59Q37.73-2.15 37.18-2.94Q36.62-3.73 36.29-4.78Q35.96-5.82 35.96-7.13L35.96-7.13L35.96-20.88Q35.96-21.58 36.12-22.39Q36.29-23.20 36.64-23.99Q36.99-24.79 37.56-25.51Q38.13-26.23 38.92-26.79Q39.71-27.34 40.74-27.68Q41.78-28.01 43.09-28.01L43.09-28.01L63.73-28.01L63.73-22.93L43.09-22.93Q42.09-22.93 41.56-22.40Q41.04-21.88 41.04-20.84L41.04-20.84L41.04-7.13Q41.04-6.15 41.57-5.62Q42.11-5.08 43.09-5.08L43.09-5.08L58.89-5.08L58.89-11.45L45.37-11.45L45.37-16.56L61.41-16.56Q61.95-16.56 62.42-16.36Q62.89-16.15 63.23-15.80Q63.57-15.45 63.77-14.99Q63.96-14.53 63.96-14.00L63.96-14.00Z M97.25-21.84L97.25-18.59Q97.25-16.86 96.82-15.49Q96.39-14.12 95.65-13.08Q94.92-12.03 93.96-11.29Q93.01-10.55 91.96-10.07Q90.92-9.59 89.85-9.38Q88.79-9.16 87.85-9.16L87.85-9.16L98.46 0L90.61 0L80.02-9.16L76.37-9.16L76.37-14.24L87.85-14.24Q88.81-14.32 89.60-14.64Q90.39-14.96 90.97-15.51Q91.54-16.05 91.86-16.83Q92.17-17.60 92.17-18.59L92.17-18.59L92.17-21.80Q92.17-22.23 92.06-22.45Q91.95-22.68 91.79-22.78Q91.62-22.89 91.44-22.91Q91.25-22.93 91.09-22.93L91.09-22.93L74.34-22.93L74.34 0L69.26 0L69.26-25.45Q69.26-25.98 69.45-26.45Q69.65-26.91 69.99-27.27Q70.33-27.62 70.80-27.81Q71.27-28.01 71.82-28.01L71.82-28.01L91.09-28.01Q92.79-28.01 93.96-27.39Q95.14-26.78 95.87-25.85Q96.60-24.92 96.92-23.85Q97.25-22.77 97.25-21.84L97.25-21.84Z M131.74-16.68L131.74-11.33Q131.74-8.77 130.86-6.62Q129.98-4.47 128.42-2.91Q126.86-1.35 124.72-0.48Q122.58 0.39 120.06 0.39L120.06 0.39L113.18 0.39Q110.66 0.39 108.52-0.48Q106.37-1.35 104.80-2.91Q103.24-4.47 102.35-6.62Q101.46-8.77 101.46-11.33L101.46-11.33L101.46-16.68Q101.46-19.22 102.35-21.38Q103.24-23.54 104.80-25.09Q106.37-26.64 108.52-27.52Q110.66-28.40 113.18-28.40L113.18-28.40L120.06-28.40Q122.58-28.40 124.72-27.52Q126.86-26.64 128.42-25.09Q129.98-23.54 130.86-21.38Q131.74-19.22 131.74-16.68L131.74-16.68ZM126.66-11.33L126.66-16.68Q126.66-18.18 126.18-19.40Q125.70-20.63 124.83-21.49Q123.96-22.36 122.74-22.84Q121.52-23.32 120.06-23.32L120.06-23.32L113.18-23.32Q111.70-23.32 110.48-22.84Q109.26-22.36 108.38-21.49Q107.50-20.63 107.02-19.40Q106.54-18.18 106.54-16.68L106.54-16.68L106.54-11.33Q106.54-9.82 107.02-8.60Q107.50-7.38 108.38-6.51Q109.26-5.64 110.48-5.17Q111.70-4.69 113.18-4.69L113.18-4.69L120.02-4.69Q121.50-4.69 122.72-5.17Q123.95-5.64 124.82-6.51Q125.70-7.38 126.18-8.60Q126.66-9.82 126.66-11.33L126.66-11.33Z M161.84-5.08L161.84 0L143.52 0Q142.81 0 142.00-0.17Q141.19-0.33 140.40-0.68Q139.61-1.04 138.89-1.59Q138.16-2.15 137.61-2.94Q137.05-3.73 136.72-4.78Q136.39-5.82 136.39-7.13L136.39-7.13L136.39-20.88Q136.39-21.58 136.55-22.39Q136.72-23.20 137.07-23.99Q137.42-24.79 137.99-25.51Q138.55-26.23 139.35-26.79Q140.14-27.34 141.17-27.68Q142.21-28.01 143.52-28.01L143.52-28.01L161.84-28.01L161.84-22.93L143.52-22.93Q142.52-22.93 141.99-22.40Q141.46-21.88 141.46-20.84L141.46-20.84L141.46-7.13Q141.46-6.15 142.00-5.62Q142.54-5.08 143.52-5.08L143.52-5.08L161.84-5.08Z M194.12-25.45L194.12 0L189.04 0L189.04-6.88L171.19-6.88L171.19 0L166.11 0L166.11-14.00Q166.11-17.07 167.17-19.65Q168.22-22.23 170.10-24.08Q171.97-25.94 174.53-26.97Q177.09-28.01 180.12-28.01L180.12-28.01L191.56-28.01Q192.09-28.01 192.56-27.81Q193.03-27.62 193.38-27.27Q193.73-26.91 193.93-26.45Q194.12-25.98 194.12-25.45L194.12-25.45ZM171.19-14.00L171.19-11.95L189.04-11.95L189.04-22.93L180.12-22.93Q179.88-22.93 179.13-22.86Q178.38-22.79 177.39-22.52Q176.41-22.25 175.31-21.68Q174.22-21.11 173.30-20.12Q172.38-19.12 171.79-17.63Q171.19-16.13 171.19-14.00L171.19-14.00Z M228.01-21.84L228.01-18.59Q228.01-16.86 227.58-15.49Q227.15-14.12 226.42-13.08Q225.68-12.03 224.73-11.29Q223.77-10.55 222.72-10.07Q221.68-9.59 220.62-9.38Q219.55-9.16 218.61-9.16L218.61-9.16L229.22 0L221.37 0L210.78-9.16L207.13-9.16L207.13-14.24L218.61-14.24Q219.57-14.32 220.36-14.64Q221.15-14.96 221.73-15.51Q222.30-16.05 222.62-16.83Q222.93-17.60 222.93-18.59L222.93-18.59L222.93-21.80Q222.93-22.23 222.82-22.45Q222.71-22.68 222.55-22.78Q222.38-22.89 222.20-22.91Q222.01-22.93 221.86-22.93L221.86-22.93L205.10-22.93L205.10 0L200.02 0L200.02-25.45Q200.02-25.98 200.21-26.45Q200.41-26.91 200.75-27.27Q201.09-27.62 201.56-27.81Q202.03-28.01 202.58-28.01L202.58-28.01L221.86-28.01Q223.55-28.01 224.73-27.39Q225.90-26.78 226.63-25.85Q227.36-24.92 227.69-23.85Q228.01-22.77 228.01-21.84L228.01-21.84Z M258.20-28.01L258.20-22.93L247.01-22.93L247.01 0L241.93 0L241.93-22.93L230.72-22.93L230.72-28.01L258.20-28.01Z"/></g>
</svg>
</g><g opacity="1" transform="rotate(0 189.0218 163.6898)">
<svg width="177.6927" height="170.934" x="189.0218" y="163.6898" version="1.1" preserveAspectRatio="none" viewBox="36.83467483520508 39.239994049072266 126.32969665527344 121.52455139160156">
  <g transform="matrix(1 0 0 1 0 0)"><g><path d="M95.762 92.511a8.491 8.491 0 011.022-.472l-3.817-14.244c-.355-1.069-1.195-3.261-2.481-4.977-.689-.915-2.835-2.6-3.21-4.004-.04-.109-.081-.22-.111-.333a4.145 4.145 0 118.009-2.144c.03.114.051.231.071.345.375 1.407-.638 3.932-.78 5.067-.243 2.082.101 4.34.324 5.474l3.838 14.322c.142-.022.283-.039.425-.055V70.375c-.071-1.125-.314-3.459-1.114-5.451-.425-1.06-2.066-3.243-2.066-4.697a3.99 3.99 0 01-.02-.348 4.15 4.15 0 014.152-4.143 4.141 4.141 0 014.141 4.143c0 .119-.01.237-.02.354 0 1.454-1.63 3.632-2.066 4.691-.78 1.946-1.023 4.217-1.104 5.371v21.197c.142.015.283.032.415.055l3.838-14.322c.223-1.134.577-3.392.324-5.474-.142-1.135-1.155-3.66-.78-5.067.02-.114.041-.231.071-.345a4.145 4.145 0 018.009 2.144c-.03.113-.071.224-.111.333-.375 1.403-2.521 3.088-3.21 4.004-1.286 1.716-2.116 3.908-2.481 4.977l-3.818 14.244c.355.137.699.294 1.023.472l20.627-30.217c1.033-1.414 3.25-5.574 3.25-8.996 0-7.766-6.288-14.059-14.055-14.059-.152 0-.314.003-.466.009-7.21.175-11.878 4.376-13.589 4.376-1.762 0-6.592-4.386-14.065-4.386-7.757 0-14.055 6.293-14.055 14.059 0 3.424 1.377 6.347 3.26 8.999l20.62 30.213z" data-color="1" class="icon1"></path><path d="M56.119 112.241l35.107-10.273a8.289 8.289 0 01-.132-1.121l-14.733-.771c-1.124.012-3.463.13-5.499.826-1.083.37-3.341 1.888-4.799 1.814a4.153 4.153 0 01-4.273-4.355 4.151 4.151 0 014.709-3.888c1.458.082 3.544 1.826 4.577 2.307 1.904.884 4.162 1.251 5.306 1.39l14.814.776c.021-.142.041-.283.071-.421L71.186 92c-1.094-.279-3.382-.772-5.529-.626-1.134.078-3.716.959-5.104.511a4.142 4.142 0 112.552-7.849c1.387.456 2.957 2.679 3.827 3.413 1.61 1.346 3.696 2.283 4.77 2.715l20.161 6.551c.051-.13.111-.257.182-.383L79.6 88.255c-1.003-.562-3.048-1.591-5.104-1.994-1.124-.22-3.838-.038-5.063-.825a4.147 4.147 0 01-1.519-5.91 4.141 4.141 0 015.731-1.218c.101.064.192.133.284.202 1.215.794 2.157 3.354 2.815 4.289 1.235 1.757 3.058 3.229 3.969 3.903l12.364 8.032c.233-.292.496-.568.77-.828L71.48 64.955c-1.023-1.423-4.293-4.82-7.554-5.877-7.382-2.399-15.311 1.641-17.711 9.026-.05.147-.091.296-.142.444-2.055 6.91.496 12.648-.03 14.282-.547 1.667-6.207 4.907-8.516 12.015-2.4 7.383 1.64 15.315 9.022 17.713 3.261 1.06 6.461.654 9.57-.317z" data-color="1" class="icon1"></path><path d="M92.421 122.753c-.334 1.076-.942 3.341-.911 5.487.021 1.144.759 3.768.243 5.125a4.136 4.136 0 01-5.458 2.715 4.146 4.146 0 01-2.249-5.677c.527-1.356 2.836-2.805 3.605-3.64 1.438-1.537 2.481-3.568 2.967-4.617l5.316-13.843a6.059 6.059 0 01-.375-.206l-12.414 17.084c-.608.953-1.782 2.982-2.309 5.065-.273 1.109-.233 3.837-1.083 5.013-.061.098-.132.195-.192.292a4.15 4.15 0 01-5.792.916 4.14 4.14 0 01-.911-5.788c.061-.096.142-.187.213-.276.861-1.173 3.463-1.977 4.435-2.583 1.772-1.115 3.311-2.806 4.05-3.693l12.455-17.148a13.672 13.672 0 01-.304-.293l-11.524 9.332c-.85.788-2.45 2.41-3.473 4.243-.557.998-1.225 3.636-2.349 4.557a4.152 4.152 0 01-6.096-.377 4.142 4.142 0 01.902-6.036c1.124-.913 3.848-1.017 4.941-1.353 2.056-.631 4.02-1.912 4.941-2.565l11.463-9.282a8.888 8.888 0 01-.557-.984l-34.438 12.325c-1.671.535-5.914 2.596-7.929 5.365-4.557 6.281-3.169 15.074 3.109 19.637.132.09.253.178.384.264 5.934 4.095 12.182 3.442 13.569 4.451 1.418 1.03 2.754 7.417 8.799 11.81 6.278 4.564 15.068 3.171 19.634-3.11 2.015-2.77 2.612-5.945 2.653-9.196l1.084-36.565a8.743 8.743 0 01-1.114-.218l-5.285 13.769z" data-color="1" class="icon1"></path><path d="M142.484 116.547l-34.439-12.325a7.462 7.462 0 01-.557.984l11.462 9.282c.922.652 2.886 1.934 4.941 2.565 1.094.336 3.818.44 4.952 1.353.091.065.182.133.273.207a4.144 4.144 0 01.618 5.828 4.15 4.15 0 01-5.833.613c-.091-.075-.172-.155-.263-.235-1.124-.921-1.793-3.558-2.349-4.557-1.013-1.833-2.623-3.455-3.473-4.243l-11.523-9.332c-.101.1-.202.2-.314.295l12.414 17.084c.719.869 2.289 2.616 4.111 3.756.962.608 3.575 1.413 4.425 2.587.081.088.152.178.223.272a4.15 4.15 0 01-.922 5.788 4.137 4.137 0 01-5.782-.916 3.793 3.793 0 01-.202-.297c-.851-1.18-.81-3.9-1.084-5.009-.516-2.033-1.65-4.017-2.258-4.997l-12.465-17.148c-.122.07-.243.138-.375.204l5.316 13.843c.486 1.048 1.539 3.079 2.967 4.616.78.836 3.078 2.285 3.605 3.641a4.14 4.14 0 01-2.238 5.677 4.148 4.148 0 01-5.468-2.715c-.517-1.357.223-3.982.243-5.126.041-2.147-.577-4.41-.911-5.486l-5.286-13.767a8.977 8.977 0 01-1.104.218l1.073 36.569c-.01 1.753.648 6.423 2.653 9.193 4.567 6.281 13.356 7.673 19.634 3.11.132-.091.253-.184.375-.279 5.731-4.378 7.038-10.522 8.425-11.53 1.418-1.031 7.909-.324 13.954-4.716 6.278-4.564 7.676-13.356 3.109-19.637-2.014-2.775-4.849-4.332-7.927-5.37z" data-color="1" class="icon1"></path><path d="M162.472 94.845a3.55 3.55 0 00-.152-.438c-2.39-6.802-7.827-9.945-8.354-11.577-.547-1.668 2.127-7.619-.182-14.725-2.4-7.385-10.329-11.425-17.71-9.026-3.261 1.058-5.61 3.272-7.554 5.88l-22.368 28.948c.273.26.537.536.77.827l12.374-8.032c.901-.674 2.724-2.146 3.959-3.903.658-.936 1.6-3.497 2.815-4.289.091-.071.192-.139.284-.202a4.141 4.141 0 015.731 1.218 4.139 4.139 0 01-1.519 5.91c-1.225.787-3.939.605-5.063.825-2.056.402-4.101 1.432-5.103 1.994l-12.435 8.076c.061.127.121.256.182.387l20.08-6.525c1.053-.417 3.19-1.366 4.84-2.744.881-.734 2.45-2.963 3.828-3.414.111-.044.213-.087.324-.122a4.142 4.142 0 112.228 7.974c-1.387.444-3.959-.435-5.104-.512-2.096-.143-4.333.322-5.448.603l-20.161 6.551c.03.138.05.277.081.418l14.804-.777c1.144-.139 3.402-.505 5.306-1.389 1.033-.481 3.119-2.225 4.577-2.307a4.148 4.148 0 014.708 3.888 4.145 4.145 0 01-4.274 4.355c-1.448.075-3.716-1.444-4.799-1.815-2.036-.696-4.374-.813-5.498-.826l-14.733.772c-.02.381-.061.754-.132 1.122l35.117 10.274c1.661.549 6.308 1.374 9.559.316 7.382-2.4 11.422-10.332 9.022-17.715z" data-color="1" class="icon1"></path></g></g>
</svg>
</g></svg></svg>